<svg width="334" height="79" viewBox="0 0 334 79" fill="none" xmlns="http://www.w3.org/2000/svg">
<path d="M48.688 65V29.8H56.24V34.92H57.776L56.56 35.816C56.56 33.8107 57.136 32.2107 58.288 31.016C59.44 29.7787 60.8693 29.16 62.576 29.16C64.4107 29.16 65.84 29.9493 66.864 31.528C67.888 33.1067 68.4 35.1973 68.4 37.8L67.248 34.92H69.04L68.464 35.816C68.464 33.8107 69.0187 32.2107 70.128 31.016C71.2373 29.7787 72.7307 29.16 74.608 29.16C76.7413 29.16 78.4693 29.9707 79.792 31.592C81.1147 33.1707 81.776 35.3467 81.776 38.12V65H73.52V38.76C73.52 37.7787 73.3067 37.032 72.88 36.52C72.4533 35.9653 71.8347 35.688 71.024 35.688C70.2133 35.688 69.5947 35.9653 69.168 36.52C68.7413 37.032 68.528 37.7787 68.528 38.76V65H61.936V38.76C61.936 37.7787 61.7227 37.032 61.296 36.52C60.8693 35.9653 60.2507 35.688 59.44 35.688C58.6293 35.688 58.0107 35.9653 57.584 36.52C57.1573 37.032 56.944 37.7787 56.944 38.76V65H48.688ZM104.279 65.64C101.164 65.64 98.4337 65.064 96.087 63.912C93.783 62.7173 91.991 61.0747 90.711 58.984C89.4737 56.8507 88.855 54.376 88.855 51.56V43.24C88.855 40.424 89.4737 37.9707 90.711 35.88C91.991 33.7467 93.783 32.104 96.087 30.952C98.4337 29.7573 101.164 29.16 104.279 29.16C107.394 29.16 110.082 29.7573 112.343 30.952C114.647 32.104 116.418 33.7467 117.655 35.88C118.935 37.9707 119.575 40.424 119.575 43.24V49.64H98.007V51.56C98.007 53.7787 98.5403 55.464 99.607 56.616C100.674 57.7253 102.274 58.28 104.407 58.28C105.9 58.28 107.095 58.024 107.991 57.512C108.93 57 109.548 56.296 109.847 55.4H119.255C118.487 58.472 116.738 60.9467 114.007 62.824C111.319 64.7013 108.076 65.64 104.279 65.64ZM110.423 44.712V43.112C110.423 40.936 109.911 39.272 108.887 38.12C107.906 36.968 106.37 36.392 104.279 36.392C102.188 36.392 100.61 36.9893 99.543 38.184C98.519 39.3787 98.007 41.064 98.007 43.24V44.2L111.063 44.072L110.423 44.712ZM141.758 65.64C138.857 65.64 136.318 65.192 134.142 64.296C131.966 63.3573 130.259 62.0773 129.022 60.456C127.827 58.8347 127.23 56.936 127.23 54.76H136.83C136.83 55.784 137.278 56.616 138.174 57.256C139.113 57.8533 140.307 58.152 141.758 58.152H144.574C146.323 58.152 147.646 57.832 148.542 57.192C149.481 56.552 149.95 55.656 149.95 54.504C149.95 53.4373 149.545 52.6267 148.734 52.072C147.923 51.4747 146.665 51.0693 144.958 50.856L140.862 50.344C136.467 49.7893 133.267 48.7227 131.262 47.144C129.257 45.5653 128.254 43.1547 128.254 39.912C128.254 36.4987 129.427 33.8533 131.774 31.976C134.121 30.0987 137.555 29.16 142.078 29.16H144.51C148.819 29.16 152.254 30.0987 154.814 31.976C157.374 33.8533 158.654 36.3707 158.654 39.528H149.054C149.054 38.6747 148.627 37.992 147.774 37.48C146.963 36.9253 145.875 36.648 144.51 36.648H142.078C140.499 36.648 139.347 36.9253 138.622 37.48C137.897 37.992 137.534 38.7813 137.534 39.848C137.534 40.8293 137.854 41.576 138.494 42.088C139.177 42.6 140.243 42.9627 141.694 43.176L146.11 43.752C150.547 44.3067 153.833 45.416 155.966 47.08C158.142 48.744 159.23 51.2187 159.23 54.504C159.23 58.088 157.993 60.84 155.518 62.76C153.043 64.68 149.395 65.64 144.574 65.64H141.758ZM180.773 65.64C177.872 65.64 175.333 65.192 173.157 64.296C170.981 63.3573 169.274 62.0773 168.037 60.456C166.842 58.8347 166.245 56.936 166.245 54.76H175.845C175.845 55.784 176.293 56.616 177.189 57.256C178.128 57.8533 179.322 58.152 180.773 58.152H183.589C185.338 58.152 186.661 57.832 187.557 57.192C188.496 56.552 188.965 55.656 188.965 54.504C188.965 53.4373 188.56 52.6267 187.749 52.072C186.938 51.4747 185.68 51.0693 183.973 50.856L179.877 50.344C175.482 49.7893 172.282 48.7227 170.277 47.144C168.272 45.5653 167.269 43.1547 167.269 39.912C167.269 36.4987 168.442 33.8533 170.789 31.976C173.136 30.0987 176.57 29.16 181.093 29.16H183.525C187.834 29.16 191.269 30.0987 193.829 31.976C196.389 33.8533 197.669 36.3707 197.669 39.528H188.069C188.069 38.6747 187.642 37.992 186.789 37.48C185.978 36.9253 184.89 36.648 183.525 36.648H181.093C179.514 36.648 178.362 36.9253 177.637 37.48C176.912 37.992 176.549 38.7813 176.549 39.848C176.549 40.8293 176.869 41.576 177.509 42.088C178.192 42.6 179.258 42.9627 180.709 43.176L185.125 43.752C189.562 44.3067 192.848 45.416 194.981 47.08C197.157 48.744 198.245 51.2187 198.245 54.504C198.245 58.088 197.008 60.84 194.533 62.76C192.058 64.68 188.41 65.64 183.589 65.64H180.773ZM216.716 65.64C213.175 65.64 210.359 64.68 208.268 62.76C206.22 60.84 205.196 58.2373 205.196 54.952C205.196 51.4107 206.412 48.7013 208.844 46.824C211.319 44.904 214.86 43.944 219.468 43.944H226.764V41.32C226.764 39.9547 226.273 38.8667 225.292 38.056C224.353 37.2453 223.073 36.84 221.452 36.84C219.959 36.84 218.721 37.1813 217.74 37.864C216.759 38.5467 216.161 39.4853 215.948 40.68H206.668C207.052 37.1387 208.588 34.344 211.276 32.296C214.007 30.2053 217.505 29.16 221.772 29.16C226.252 29.16 229.793 30.2693 232.396 32.488C235.041 34.664 236.364 37.608 236.364 41.32V65H227.084V59.24H225.548L227.148 57C227.148 59.6453 226.188 61.7573 224.268 63.336C222.391 64.872 219.873 65.64 216.716 65.64ZM220.3 58.6C222.177 58.6 223.713 58.1093 224.908 57.128C226.145 56.104 226.764 54.7813 226.764 53.16V49.384H219.66C218.209 49.384 217.036 49.8107 216.14 50.664C215.244 51.4747 214.796 52.5627 214.796 53.928C214.796 55.3787 215.287 56.5307 216.268 57.384C217.249 58.1947 218.593 58.6 220.3 58.6ZM250.355 76.52V68.84H260.275C262.067 68.84 263.432 68.392 264.371 67.496C265.352 66.6 265.843 65.3627 265.843 63.784V62.44L265.971 55.72H263.731L265.971 53.48C265.971 56.5093 265.139 58.8773 263.475 60.584C261.811 62.248 259.528 63.08 256.627 63.08C253.086 63.08 250.248 61.8427 248.115 59.368C245.982 56.8933 244.915 53.544 244.915 49.32V42.92C244.915 38.7387 245.982 35.4107 248.115 32.936C250.248 30.4187 253.086 29.16 256.627 29.16C259.528 29.16 261.811 30.0133 263.475 31.72C265.139 33.384 265.971 35.7307 265.971 38.76L263.731 36.52H265.971L265.651 29.8H275.251V64.104C275.251 67.944 273.928 70.9733 271.283 73.192C268.68 75.4107 265.118 76.52 260.595 76.52H250.355ZM260.083 54.76C261.832 54.76 263.198 54.2693 264.179 53.288C265.16 52.264 265.651 50.8347 265.651 49V43.24C265.651 41.4053 265.16 39.9973 264.179 39.016C263.198 37.992 261.832 37.48 260.083 37.48C258.291 37.48 256.904 37.992 255.923 39.016C254.984 39.9973 254.515 41.4053 254.515 43.24V49C254.515 50.8347 254.984 52.264 255.923 53.288C256.904 54.2693 258.291 54.76 260.083 54.76ZM299.29 65.64C296.175 65.64 293.466 65.064 291.162 63.912C288.858 62.7173 287.066 61.0747 285.786 58.984C284.549 56.8507 283.93 54.376 283.93 51.56V43.24C283.93 40.424 284.549 37.9707 285.786 35.88C287.066 33.7467 288.858 32.104 291.162 30.952C293.466 29.7573 296.175 29.16 299.29 29.16C302.447 29.16 305.157 29.7573 307.418 30.952C309.722 32.104 311.493 33.7467 312.73 35.88C314.01 37.9707 314.65 40.424 314.65 43.24V51.56C314.65 54.376 314.01 56.8507 312.73 58.984C311.493 61.0747 309.722 62.7173 307.418 63.912C305.157 65.064 302.447 65.64 299.29 65.64ZM299.29 57.32C301.167 57.32 302.597 56.8293 303.578 55.848C304.559 54.824 305.05 53.3947 305.05 51.56V43.24C305.05 41.3627 304.559 39.9333 303.578 38.952C302.597 37.9707 301.167 37.48 299.29 37.48C297.455 37.48 296.026 37.9707 295.002 38.952C294.021 39.9333 293.53 41.3627 293.53 43.24V51.56C293.53 53.3947 294.021 54.824 295.002 55.848C296.026 56.8293 297.455 57.32 299.29 57.32Z" fill="black"/>
<path d="M19.2132 65.4264C8.60205 65.4264 0 56.8244 0 46.2132L0 45.6795C0 35.3631 8.3631 27 18.6795 27V27C28.9959 27 37.359 35.3631 37.359 45.6795V65.4264H19.2132Z" fill="#2776FF"/>
</svg>
